<?xml version="1.0" encoding="utf-8"?>
<!-- Generator: Adobe Illustrator 16.0.0, SVG Export Plug-In . SVG Version: 6.00 Build 0)  -->
<!DOCTYPE svg PUBLIC "-//W3C//DTD SVG 1.1//EN" "http://www.w3.org/Graphics/SVG/1.1/DTD/svg11.dtd">
<svg version="1.1" id="Layer_1" xmlns="http://www.w3.org/2000/svg" xmlns:xlink="http://www.w3.org/1999/xlink" x="0px" y="0px"
	 width="141.483px" height="169.967px" viewBox="0 0 141.483 169.967" enable-background="new 0 0 141.483 169.967"
	 xml:space="preserve">
<path fill-rule="evenodd" clip-rule="evenodd" fill="#EBAD32" d="M8.499,169.967c-0.666,0-1.333,0-2,0
	c-4.445-0.364-6.264-2.975-6.378-7.227c-0.036-1.325-0.114-2.657-0.114-3.985C0,108.948-0.002,59.14,0.004,9.333
	c0.001-6.859,1.368-8.838,6.338-9.28c3.945-0.352,6.834,1.023,8.142,5.002c0.52,1.583,1.047,3.152,1.367,4.797
	c4.99,25.623,20.744,42.581,43.528,53.769c5.528,2.714,11.318,4.888,17.149,6.874c6.011,2.047,12.157,3.263,18.607,3.188
	c12.99-0.15,25.985-0.146,38.979,0.017c3.08,0.038,6.183,0.141,6.836,4.185c0.072,4.003,0.015,8.009,0.032,12.006
	c0.078,3.871-2.131,5.387-5.677,5.274c-5.019-0.158-9.936,0.799-14.898,1.233c-4.586,0.401-6.074,2.376-4.75,6.65
	c2.954,9.535,7.632,17.98,16.042,23.945c3.62,2.565,7.639,4.772,9.784,8.977c0,9.666,0,19.331,0,28.997
	c-1.667,3.111-4.141,2.938-6.785,1.556c-14.28-7.465-25.702-17.779-34.255-31.692c-4.609-7.499-7.187-15.661-10.691-23.515
	c-1.064-2.386-1.394-5.093-1.537-7.787c-0.316-5.967-1.329-6.729-7.038-5.464c-13.677,3.033-26.046,8.939-37.249,17.286
	c-3.591,2.675-7.089,5.475-10.533,8.358c-11.417,9.561-16.227,22.37-18.627,36.468C14.061,164.329,13.365,168.481,8.499,169.967z"/>
</svg>
