<?xml version="1.0" encoding="utf-8"?>
<!-- Generator: Adobe Illustrator 16.0.0, SVG Export Plug-In . SVG Version: 6.00 Build 0)  -->
<!DOCTYPE svg PUBLIC "-//W3C//DTD SVG 1.1//EN" "http://www.w3.org/Graphics/SVG/1.1/DTD/svg11.dtd">
<svg version="1.1" id="Layer_1" xmlns="http://www.w3.org/2000/svg" xmlns:xlink="http://www.w3.org/1999/xlink" x="0px" y="0px"
	 width="495.131px" height="105.435px" viewBox="0 0 495.131 105.435" enable-background="new 0 0 495.131 105.435"
	 xml:space="preserve">
<g>
	<path fill-rule="evenodd" clip-rule="evenodd" fill="#2D2B28" d="M164.263,39.718c3.769,1.066,6.545,1.647,9.168,2.635
		c7.456,2.805,12.326,7.985,12.942,16.131c0.607,8.024-3.073,14.175-9.813,18.359c-5.946,3.691-12.686,5.017-19.551,5.163
		c-11.481,0.246-22.97,0.09-34.456,0.171c-2.037,0.015-3.514-0.012-3.381-2.797c0.105-2.221,0.598-3.122,3.045-3.367
		c6.998-0.699,7.09-0.85,7.115-7.816c0.063-17.311-0.198-34.627,0.143-51.932c0.108-5.516-1.301-8.447-7.115-7.989
		c-3.375,0.267-3.221-1.841-3.124-4.13c0.062-1.481,0.68-2.031,2.154-1.983c14.788,0.48,29.656-1.244,44.361,1.117
		c7.289,1.17,13.095,5.116,15.521,12.485c2.067,6.278,0.86,12.191-3.568,17.237C174.375,36.796,169.834,38.383,164.263,39.718z
		 M149.729,43.532c-3.897-1.043-5.775,0.678-5.241,5.975c0.514,5.094,0.119,10.277,0.153,15.422
		c0.082,12.309,0.089,12.309,12.228,10.297c8.976-1.488,13.678-6.871,13.571-15.536c-0.11-8.941-5.06-14.409-14.157-15.583
		C154.473,43.873,152.646,43.782,149.729,43.532z M144.724,23.264c-0.043,0-0.086,0-0.129,0c0,2.162,0,4.323,0,6.485
		c0,8.557,0,8.557,8.647,7.607c9.509-1.043,13.799-5.695,13.757-14.919c-0.041-8.993-4.155-13.143-13.936-13.955
		c-1.818-0.151-3.662,0.027-5.483-0.097c-2.172-0.147-2.946,0.77-2.888,2.908C144.801,15.281,144.724,19.273,144.724,23.264z"/>
	<path fill-rule="evenodd" clip-rule="evenodd" fill="#302E2B" d="M332.859,43.318c4.496,0.001,8.994,0.073,13.488-0.031
		c2.105-0.05,3.01,0.631,2.991,2.842c-0.017,1.921-0.277,3.372-2.598,3.216c-4.08-0.272-4.328,2.173-4.256,5.366
		c0.145,6.323-0.157,12.657-0.004,18.98c0.062,2.542-0.802,3.837-3.064,4.945c-11.184,5.475-22.841,7.093-34.941,4.245
		c-15.956-3.755-27.415-17.738-28.824-34.906c-0.617-7.514-0.241-14.969,2.323-22.175c6.465-18.167,24.592-28.279,45.335-25.277
		c0.823,0.119,1.638,0.303,2.46,0.43c14.094,2.183,17.484,7.107,14.893,21.24c-0.365,1.993-1.462,2.08-2.755,1.813
		c-2.01-0.414-4.938,1.602-5.846-1.907c-0.623-2.409-1.323-4.875-1.4-7.334c-0.164-5.236-3.254-7.006-7.834-7.685
		c-11.287-1.673-21.173,2.861-25.999,13.317c-6.689,14.493-6.614,29.48,0.049,43.947c4.804,10.431,16.716,15.36,27.794,12.694
		c1.843-0.443,2.897-1.117,2.846-3.28c-0.164-6.825-0.233-13.654-0.166-20.48c0.023-2.401-0.91-3.259-3.205-3.233
		c-1.485,0.017-2.973-0.332-4.464-0.472c-2.363-0.221-4.51-0.229-4.16-3.84c0.337-3.472,2.648-2.32,4.35-2.373
		C324.196,43.228,328.529,43.317,332.859,43.318z"/>
	<path fill-rule="evenodd" clip-rule="evenodd" fill="#2D2B28" d="M41.186,82.12c-9.158,0-18.315-0.009-27.473,0.007
		c-1.844,0.004-3.596,0.368-3.558-2.604c0.033-2.592,0.84-3.665,3.421-3.466c5.224,0.402,6.996-1.802,6.889-7.227
		c-0.354-17.975-0.313-35.963-0.036-53.939c0.072-4.682-1.361-6.624-5.962-6.553c-2.255,0.035-4.581,0.199-4.336-3.571
		c0.251-3.869,2.827-2.54,4.62-2.548c16.983-0.082,33.968,0.056,50.949-0.135c3.515-0.04,4.649,1.021,4.57,4.434
		c-0.104,4.487,0.231,8.984,0.356,13.478c0.045,1.606,0.516,3.726-2.214,3.237c-2.259-0.404-5.654,1.858-6.445-2.422
		c-0.513-2.778-1.116-5.56-1.345-8.367C60.41,9.819,59.539,8.597,56.66,8.69c-5.822,0.19-11.655,0.123-17.481,0.022
		c-2.233-0.039-3.384,0.542-3.375,3.028c0.029,7.825-0.103,15.65-0.125,23.475c-0.002,0.778,0.174,2.161,0.514,2.243
		c4.396,1.061,8.924,0.747,13.323,0.342c2.805-0.258,1.637-3.487,2.15-5.417c0.383-1.441,0.308-3.159,1.094-4.303
		c1.072-1.558,3.069-0.752,4.633-0.634c1.715,0.131,1.221,1.723,1.228,2.769c0.047,7.159-0.008,14.319,0.047,21.479
		c0.015,1.898-0.192,3.24-2.63,3.088c-1.866-0.117-3.448,0.145-3.959-2.513c-0.492-2.555,0.638-6.283-1.696-7.432
		c-2.438-1.2-5.871-0.203-8.809-0.604c-4.707-0.643-6.398,0.791-6.011,5.831c0.547,7.12,0.316,14.31,0.196,21.466
		c-0.053,3.133,0.819,4.463,4.225,4.327c6.317-0.252,12.653-0.159,18.978-0.027c2.416,0.051,3.693-0.538,3.848-3.197
		c0.134-2.308,1.067-4.587,1.081-6.882c0.028-4.737,2.838-5.009,6.48-4.783c2.087,0.129,2.934,0.586,2.768,2.887
		c-0.359,4.979-0.573,9.979-0.545,14.969c0.015,2.622-0.828,3.393-3.434,3.353C59.835,82.031,50.51,82.12,41.186,82.12z"/>
	<path fill-rule="evenodd" clip-rule="evenodd" fill="#2D2B28" d="M453.994,82.151c-9.158,0-18.316-0.039-27.474,0.029
		c-2.079,0.016-3.471-0.088-3.351-2.835c0.099-2.263,0.679-3.093,3.084-3.332c6.966-0.693,7.056-0.837,7.081-7.856
		c0.062-17.315-0.199-34.636,0.141-51.945c0.109-5.555-1.381-8.333-7.174-7.979c-1.805,0.11-3.145-0.184-3.13-2.648
		c0.015-2.445,0.479-3.497,3.279-3.477c17.815,0.129,35.633,0.109,53.448,0.014c2.403-0.013,3.234,0.803,3.27,3.101
		c0.074,4.993,0.319,9.983,0.454,14.977c0.037,1.407,0.513,3.438-1.917,3.009c-2.197-0.388-5.108,1.721-6.527-1.643
		c-0.255-0.604-0.331-1.287-0.453-1.941c-2.029-10.883-2.028-10.883-13.266-10.883c-12.586,0-12.592,0-12.721,12.693
		c-0.046,4.495,0.058,8.995-0.128,13.484c-0.1,2.423,0.758,3.331,3.133,3.092c1.318-0.133,2.661-0.022,3.993-0.022
		c7.687,0.002,7.794,0.021,9.149-7.286c0.484-2.61,1.509-3.52,4.222-3.464c3.018,0.062,2.524,1.93,2.528,3.688
		c0.018,6.827,0.015,13.653,0.002,20.48c-0.003,1.623,0.395,3.462-2.318,3.361c-2.034-0.076-3.659,0.189-4.277-2.718
		c-1.658-7.806-1.86-7.487-10.192-7.871c-4.802-0.222-6.782,0.711-6.304,6.098c0.616,6.941,0.344,13.976,0.202,20.965
		c-0.066,3.305,0.763,4.8,4.442,4.627c6.147-0.29,12.32-0.182,18.478-0.031c2.579,0.063,3.988-0.479,4.192-3.397
		c0.195-2.801,1.147-5.544,1.43-8.346c0.222-2.195,0.858-2.991,3.278-3.172c4.463-0.333,6.523,0.835,5.388,5.646
		c-0.376,1.592-0.207,3.315-0.261,4.979c-0.344,10.603-0.342,10.603-10.723,10.603C467.98,82.151,460.987,82.151,453.994,82.151z"/>
	<path fill-rule="evenodd" clip-rule="evenodd" fill="#302E2B" d="M200.837,34.546c0-6.831-0.235-13.673,0.09-20.488
		c0.191-4.008-1.063-5.788-5.125-5.742c-2.197,0.024-4.572,0.34-4.373-3.499c0.203-3.911,2.752-2.581,4.545-2.601
		c9.33-0.105,18.663-0.068,27.994-0.031c1.665,0.007,3.677-0.731,3.767,2.391c0.082,2.833-0.856,3.822-3.603,3.781
		c-1.811-0.027-3.623,0.534-5.447,0.662c-1.481,0.104-2.027,0.772-2,2.198c0.297,15.808-1.342,31.671,0.829,47.414
		c1.487,10.78,7.189,15.603,17.23,15.614c9.954,0.012,16.108-5.392,17.758-15.954c1.967-12.588,0.602-25.287,0.972-37.931
		c0.034-1.165,0.005-2.332,0.005-3.499c0-7.377,0.006-7.413-7.386-8.436c-2.305-0.319-4.621-0.009-4.34-3.715
		c0.292-3.842,2.936-2.452,4.728-2.487c6.996-0.14,13.997-0.029,20.996-0.074c1.829-0.012,3.271,0.016,3.118,2.552
		c-0.116,1.936,0.013,3.246-2.691,3.634c-7.466,1.069-7.307,1.269-7.466,8.822c-0.291,13.814,1.002,27.671-0.803,41.44
		c-2.976,22.702-27.944,33.715-47.02,20.763c-6.961-4.727-10.094-11.739-11.066-19.841C200.554,51.218,201.213,42.87,200.837,34.546
		z"/>
	<path fill-rule="evenodd" clip-rule="evenodd" fill="#2D2B28" d="M384.133,82.15c-8.664,0-17.328,0.016-25.992-0.012
		c-1.856-0.006-4.058,0.743-3.982-2.678c0.058-2.645,0.969-3.61,3.488-3.401c5.344,0.443,6.921-1.967,6.82-7.3
		c-0.33-17.487-0.074-34.985-0.129-52.479c-0.022-7.018-0.118-7.062-6.976-7.996c-1.714-0.233-3.242-0.103-3.181-2.638
		c0.057-2.325,0.3-3.599,3.211-3.544c9.993,0.187,19.993,0.091,29.99,0.054c1.848-0.007,3.225,0.084,3.134,2.585
		c-0.075,2.046-0.204,3.199-2.796,3.576c-7.876,1.145-7.931,1.313-7.948,9.519c-0.037,17.66,0.098,35.321-0.038,52.98
		c-0.027,3.583,0.805,5.117,4.708,4.85c4.976-0.34,10.007-0.318,14.985-0.006c3.665,0.23,5.064-1.104,5.328-4.667
		c0.208-2.794,1.411-5.516,1.602-8.309c0.214-3.116,1.641-3.579,4.448-3.775c4.101-0.287,5.083,1.146,4.634,4.994
		c-0.578,4.954-0.797,9.97-0.838,14.961c-0.021,2.648-0.904,3.378-3.478,3.339C402.129,82.064,393.131,82.149,384.133,82.15z"/>
	<path fill-rule="evenodd" clip-rule="evenodd" fill="#EFC36C" d="M248.076,102.112c80.655,0,161.311-0.008,241.966,0.056
		c1.774,0.001,5.035-1.104,5.088,1.215c0.074,3.276-3.347,1.646-5.109,1.646c-161.644,0.087-323.288,0.085-484.932,0.026
		c-1.774-0.001-5.035,1.103-5.088-1.216c-0.075-3.275,3.347-1.644,5.109-1.646C86.099,102.101,167.087,102.112,248.076,102.112z"/>
	<path fill-rule="evenodd" clip-rule="evenodd" fill="#EBAE33" d="M95.978,55.563c-2.995,0-5.991,0.007-8.986-0.002
		c-5.955-0.018-5.95-0.241-5.679-9.195c0.112-3.709,1.094-4.542,3.322-4.504c7.487,0.131,14.981,0.305,22.461-0.058
		c3.74-0.181,3.424,3.058,3.384,6.638c-0.041,3.671,0.595,7.664-3.524,7.206C103.316,55.242,99.639,55.563,95.978,55.563z"/>
</g>
</svg>
