<?xml version="1.0" encoding="utf-8"?>
<!-- Generator: Adobe Illustrator 16.0.0, SVG Export Plug-In . SVG Version: 6.00 Build 0)  -->
<!DOCTYPE svg PUBLIC "-//W3C//DTD SVG 1.1//EN" "http://www.w3.org/Graphics/SVG/1.1/DTD/svg11.dtd">
<svg version="1.1" id="Layer_1" xmlns="http://www.w3.org/2000/svg" xmlns:xlink="http://www.w3.org/1999/xlink" x="0px" y="0px"
	 width="198.052px" height="42.173px" viewBox="0 0 198.052 42.173" enable-background="new 0 0 198.052 42.173"
	 xml:space="preserve">
<g>
	<path fill-rule="evenodd" clip-rule="evenodd" fill="#2D2B28" d="M65.706,15.887c1.508,0.426,2.618,0.659,3.667,1.054
		c2.982,1.122,4.931,3.194,5.177,6.452c0.243,3.21-1.229,5.67-3.925,7.344c-2.379,1.477-5.075,2.007-7.82,2.065
		c-4.593,0.099-9.188,0.036-13.782,0.068c-0.815,0.006-1.406-0.005-1.353-1.119c0.042-0.888,0.239-1.249,1.218-1.347
		c2.799-0.279,2.836-0.34,2.847-3.127c0.025-6.924-0.079-13.851,0.057-20.772c0.043-2.206-0.521-3.379-2.846-3.195
		c-1.35,0.106-1.289-0.736-1.25-1.652c0.025-0.592,0.272-0.813,0.862-0.793c5.916,0.192,11.863-0.498,17.745,0.447
		c2.915,0.468,5.238,2.046,6.208,4.994c0.827,2.511,0.344,4.876-1.427,6.895C69.75,14.718,67.934,15.353,65.706,15.887z
		 M59.892,17.413c-1.559-0.417-2.311,0.271-2.097,2.39c0.205,2.038,0.047,4.111,0.061,6.169c0.033,4.924,0.036,4.924,4.891,4.119
		c3.59-0.596,5.471-2.749,5.429-6.215c-0.044-3.576-2.024-5.764-5.663-6.233C61.79,17.549,61.059,17.513,59.892,17.413z
		 M57.89,9.305c-0.018,0-0.034,0-0.052,0c0,0.865,0,1.729,0,2.594c0,3.422,0,3.422,3.459,3.043c3.804-0.417,5.52-2.278,5.503-5.967
		c-0.016-3.598-1.662-5.257-5.574-5.582c-0.728-0.061-1.465,0.011-2.193-0.039c-0.869-0.059-1.178,0.308-1.155,1.163
		C57.92,6.112,57.89,7.709,57.89,9.305z"/>
	<path fill-rule="evenodd" clip-rule="evenodd" fill="#302E2B" d="M133.144,17.327c1.799,0,3.598,0.029,5.396-0.012
		c0.842-0.021,1.204,0.252,1.196,1.137c-0.007,0.768-0.111,1.349-1.039,1.286c-1.632-0.109-1.731,0.869-1.702,2.146
		c0.058,2.529-0.063,5.063-0.002,7.592c0.024,1.017-0.32,1.535-1.226,1.979c-4.474,2.189-9.137,2.837-13.977,1.698
		c-6.383-1.502-10.966-7.096-11.529-13.963c-0.247-3.005-0.097-5.987,0.929-8.87c2.586-7.267,9.837-11.312,18.134-10.11
		c0.33,0.047,0.655,0.121,0.984,0.172c5.638,0.873,6.994,2.843,5.957,8.496c-0.146,0.797-0.585,0.832-1.102,0.725
		c-0.805-0.166-1.976,0.641-2.339-0.763c-0.249-0.963-0.529-1.95-0.56-2.934c-0.066-2.094-1.302-2.802-3.134-3.073
		c-4.515-0.669-8.47,1.145-10.399,5.327c-2.676,5.797-2.646,11.792,0.02,17.579c1.921,4.173,6.686,6.145,11.117,5.078
		c0.737-0.178,1.159-0.447,1.139-1.313c-0.066-2.729-0.094-5.462-0.066-8.192c0.009-0.96-0.364-1.303-1.282-1.293
		c-0.595,0.007-1.189-0.133-1.786-0.188c-0.945-0.088-1.804-0.092-1.664-1.536c0.135-1.389,1.06-0.928,1.74-0.949
		C129.679,17.291,131.412,17.327,133.144,17.327z"/>
	<path fill-rule="evenodd" clip-rule="evenodd" fill="#2D2B28" d="M16.475,32.848c-3.663,0-7.326-0.004-10.989,0.002
		c-0.738,0.002-1.438,0.147-1.423-1.041c0.014-1.037,0.336-1.466,1.369-1.387c2.089,0.161,2.798-0.721,2.755-2.891
		C8.044,20.342,8.061,13.147,8.172,5.957c0.028-1.873-0.545-2.649-2.385-2.621c-0.902,0.014-1.833,0.08-1.734-1.429
		c0.1-1.548,1.13-1.016,1.848-1.019c6.793-0.033,13.587,0.022,20.38-0.054c1.406-0.016,1.859,0.409,1.828,1.773
		c-0.042,1.795,0.092,3.594,0.143,5.392c0.018,0.643,0.206,1.49-0.886,1.295c-0.904-0.162-2.262,0.743-2.578-0.969
		c-0.205-1.111-0.446-2.224-0.538-3.347c-0.085-1.05-0.434-1.539-1.585-1.501c-2.329,0.076-4.662,0.049-6.993,0.009
		c-0.893-0.016-1.354,0.217-1.35,1.211c0.012,3.13-0.041,6.26-0.05,9.39c-0.001,0.311,0.069,0.864,0.205,0.897
		c1.759,0.424,3.57,0.299,5.329,0.137c1.122-0.103,0.655-1.395,0.86-2.167c0.153-0.577,0.123-1.264,0.438-1.722
		c0.429-0.623,1.228-0.301,1.854-0.253c0.687,0.052,0.488,0.688,0.491,1.107c0.019,2.863-0.003,5.728,0.019,8.591
		c0.006,0.76-0.076,1.296-1.052,1.235c-0.747-0.047-1.379,0.058-1.584-1.005c-0.196-1.022,0.255-2.514-0.679-2.973
		c-0.975-0.48-2.348-0.081-3.523-0.241c-1.882-0.257-2.559,0.316-2.404,2.332c0.219,2.848,0.127,5.724,0.079,8.586
		c-0.021,1.254,0.328,1.785,1.69,1.731c2.527-0.101,5.062-0.063,7.591-0.011c0.966,0.02,1.478-0.216,1.539-1.279
		c0.054-0.923,0.427-1.835,0.433-2.753c0.011-1.895,1.135-2.003,2.592-1.913c0.835,0.052,1.174,0.234,1.107,1.154
		c-0.144,1.992-0.229,3.992-0.218,5.988c0.006,1.049-0.331,1.356-1.374,1.341C23.935,32.812,20.205,32.848,16.475,32.848z"/>
	<path fill-rule="evenodd" clip-rule="evenodd" fill="#2D2B28" d="M181.598,32.86c-3.663,0-7.327-0.016-10.989,0.012
		c-0.832,0.007-1.389-0.035-1.341-1.134c0.04-0.905,0.271-1.237,1.233-1.333c2.787-0.277,2.822-0.334,2.833-3.143
		c0.024-6.926-0.08-13.854,0.056-20.777c0.044-2.222-0.552-3.333-2.869-3.191c-0.722,0.044-1.258-0.074-1.252-1.06
		c0.006-0.979,0.191-1.399,1.312-1.391c7.126,0.052,14.253,0.044,21.38,0.005c0.961-0.005,1.293,0.321,1.308,1.24
		c0.029,1.998,0.128,3.994,0.182,5.991c0.015,0.563,0.205,1.375-0.767,1.203c-0.879-0.155-2.044,0.688-2.611-0.657
		c-0.102-0.242-0.133-0.515-0.182-0.777c-0.812-4.353-0.811-4.353-5.306-4.353c-5.034,0-5.037,0-5.089,5.077
		c-0.018,1.798,0.023,3.598-0.051,5.394c-0.04,0.969,0.303,1.333,1.253,1.237c0.527-0.053,1.064-0.009,1.598-0.009
		c3.074,0.001,3.117,0.009,3.659-2.914c0.194-1.044,0.604-1.408,1.689-1.386c1.207,0.024,1.01,0.772,1.011,1.476
		c0.007,2.73,0.006,5.461,0.001,8.192c-0.001,0.649,0.158,1.385-0.928,1.344c-0.813-0.031-1.463,0.076-1.711-1.087
		c-0.663-3.122-0.744-2.995-4.076-3.148c-1.921-0.088-2.713,0.285-2.521,2.439c0.246,2.776,0.137,5.59,0.08,8.386
		c-0.026,1.322,0.306,1.92,1.777,1.851c2.459-0.116,4.928-0.072,7.391-0.013c1.032,0.025,1.596-0.191,1.678-1.358
		c0.078-1.12,0.459-2.218,0.571-3.339c0.089-0.878,0.344-1.196,1.312-1.269c1.785-0.133,2.609,0.334,2.155,2.259
		c-0.15,0.637-0.083,1.326-0.104,1.992c-0.138,4.24-0.137,4.24-4.289,4.24C187.193,32.86,184.395,32.86,181.598,32.86z"/>
	<path fill-rule="evenodd" clip-rule="evenodd" fill="#302E2B" d="M80.335,13.818c0-2.732-0.094-5.469,0.036-8.195
		c0.076-1.603-0.426-2.315-2.05-2.297c-0.879,0.01-1.829,0.136-1.75-1.399c0.082-1.564,1.101-1.032,1.818-1.04
		c3.732-0.042,7.465-0.027,11.198-0.013c0.666,0.003,1.471-0.292,1.506,0.956c0.033,1.134-0.342,1.529-1.441,1.513
		c-0.724-0.011-1.449,0.214-2.179,0.265c-0.592,0.042-0.811,0.31-0.8,0.88c0.119,6.323-0.537,12.668,0.332,18.965
		c0.595,4.313,2.875,6.241,6.892,6.246c3.981,0.005,6.443-2.156,7.104-6.382c0.787-5.035,0.24-10.114,0.389-15.172
		c0.014-0.466,0.002-0.933,0.002-1.399c0-2.951,0.002-2.966-2.954-3.375c-0.922-0.127-1.849-0.003-1.736-1.486
		c0.117-1.537,1.175-0.981,1.892-0.995c2.798-0.056,5.599-0.012,8.398-0.029c0.731-0.005,1.308,0.006,1.247,1.021
		c-0.047,0.774,0.005,1.298-1.077,1.453c-2.986,0.428-2.922,0.508-2.986,3.529c-0.116,5.525,0.401,11.068-0.32,16.576
		c-1.19,9.081-11.178,13.485-18.809,8.305c-2.784-1.891-4.037-4.695-4.426-7.937C80.222,20.487,80.486,17.148,80.335,13.818z"/>
	<path fill-rule="evenodd" clip-rule="evenodd" fill="#2D2B28" d="M153.654,32.86c-3.466,0-6.932,0.006-10.397-0.005
		c-0.742-0.002-1.623,0.298-1.593-1.071c0.023-1.058,0.388-1.443,1.396-1.36c2.138,0.178,2.769-0.786,2.728-2.92
		c-0.132-6.995-0.029-13.994-0.051-20.991c-0.01-2.808-0.048-2.825-2.791-3.199c-0.686-0.093-1.297-0.041-1.271-1.055
		c0.022-0.93,0.119-1.439,1.284-1.417c3.997,0.075,7.997,0.037,11.996,0.021c0.739-0.002,1.29,0.034,1.253,1.034
		c-0.029,0.818-0.081,1.28-1.118,1.431c-3.15,0.458-3.172,0.525-3.179,3.808c-0.016,7.064,0.039,14.128-0.016,21.192
		c-0.011,1.433,0.322,2.047,1.883,1.939c1.99-0.136,4.003-0.127,5.994-0.002c1.467,0.092,2.026-0.441,2.132-1.867
		c0.083-1.117,0.564-2.206,0.641-3.323c0.085-1.247,0.656-1.432,1.779-1.511c1.64-0.114,2.033,0.459,1.854,1.998
		c-0.231,1.981-0.319,3.988-0.335,5.984c-0.009,1.06-0.362,1.352-1.392,1.336C160.852,32.826,157.252,32.86,153.654,32.86z"/>
	<path fill-rule="evenodd" clip-rule="evenodd" fill="#EFC36C" d="M99.231,40.844c32.262,0,64.524-0.003,96.786,0.022
		c0.71,0.001,2.014-0.441,2.035,0.486c0.029,1.311-1.339,0.658-2.044,0.658c-64.657,0.035-129.314,0.034-193.973,0.011
		c-0.709,0-2.014,0.441-2.035-0.486c-0.029-1.311,1.339-0.657,2.044-0.658C34.44,40.84,66.835,40.844,99.231,40.844z"/>
	<path fill-rule="evenodd" clip-rule="evenodd" fill="#EBAE33" d="M38.392,22.225c-1.198,0-2.396,0.002-3.594-0.001
		c-2.382-0.007-2.38-0.097-2.271-3.678c0.045-1.484,0.438-1.817,1.329-1.802c2.995,0.052,5.993,0.122,8.985-0.023
		c1.496-0.072,1.369,1.223,1.354,2.655c-0.017,1.468,0.237,3.065-1.41,2.882C41.327,22.097,39.856,22.225,38.392,22.225z"/>
</g>
</svg>
